<?xml version="1.0" standalone="no"?>
<!DOCTYPE svg PUBLIC "-//W3C//DTD SVG 20010904//EN"
 "http://www.w3.org/TR/2001/REC-SVG-20010904/DTD/svg10.dtd">
<svg version="1.0" xmlns="http://www.w3.org/2000/svg"
 width="1000.000000pt" height="1000.000000pt" viewBox="0 0 1000.000000 1000.000000"
 preserveAspectRatio="xMidYMid meet">
<metadata>
Created by potrace 1.14, written by Peter Selinger 2001-2017
</metadata>
<g transform="translate(0.000000,1000.000000) scale(0.100000,-0.100000)"
fill="#000000" stroke="none">
<path d="M0 5000 l0 -5000 5000 0 5000 0 0 5000 0 5000 -5000 0 -5000 0 0
-5000z m3099 1959 c303 -21 574 -87 932 -226 l116 -45 18 -51 17 -52 -149
-345 c-125 -287 -153 -345 -169 -344 -10 1 -85 27 -166 58 -318 121 -502 165
-730 173 -222 8 -321 -14 -408 -93 -69 -62 -85 -103 -85 -215 0 -93 1 -98 34
-145 72 -105 176 -168 586 -359 627 -291 872 -482 1016 -789 122 -262 130
-634 19 -911 -138 -345 -452 -592 -890 -698 -524 -128 -1244 -63 -1719 154
l-91 42 0 402 0 402 54 36 54 36 143 -58 c426 -172 755 -252 1037 -251 312 1
481 100 498 292 15 153 -65 258 -292 387 -50 29 -215 110 -366 180 -408 190
-576 292 -728 441 -155 151 -266 335 -317 526 -23 89 -26 118 -27 279 -1 203
12 287 68 437 194 517 773 793 1545 737z m4036 1 c291 -20 565 -73 826 -161
196 -66 202 -69 226 -126 l20 -49 -142 -329 -143 -329 -51 -17 c-51 -18 -51
-18 -109 8 -259 115 -532 173 -812 173 -162 0 -259 -12 -379 -46 -347 -100
-611 -369 -716 -730 -88 -304 -81 -725 17 -1033 100 -318 306 -526 593 -601
164 -42 417 -46 679 -9 l86 12 0 334 0 333 -342 0 -342 0 -38 37 -38 37 0 340
0 340 37 38 37 38 800 0 800 0 38 -37 38 -37 0 -1028 0 -1027 -82 -26 c-657
-208 -1468 -271 -1998 -156 -739 162 -1208 683 -1340 1491 -41 254 -49 609
-20 850 125 1011 836 1639 1933 1709 183 12 247 12 422 1z"/>
</g>
</svg>
